<svg width="43" height="40" viewBox="0 0 43 40" fill="none" xmlns="http://www.w3.org/2000/svg">
<ellipse cx="21.8174" cy="19.8527" rx="21.1508" ry="19.7553" fill="white"/>
<path d="M35.2434 6.00153V13.5096H18.522C18.3202 13.5079 18.1199 13.5362 17.9326 13.593C17.7455 13.6498 17.575 13.7338 17.4313 13.8403C17.3144 13.9273 17.219 14.0291 17.1495 14.1412C17.305 12.2393 18.2643 10.4243 19.888 8.96034C21.5116 7.49638 23.7148 6.45983 26.1768 6.00153H35.2434Z" fill="url(#paint0_linear_14_27)"/>
<path d="M26.4824 24.9372C26.3444 26.8486 25.3951 28.6766 23.7734 30.1532C22.1517 31.6298 19.9431 32.6774 17.4712 33.1424H8.82086V25.636H25.0623C25.2689 25.638 25.474 25.6086 25.6651 25.5495C25.8479 25.4935 26.0138 25.4105 26.153 25.3052C26.2929 25.1994 26.4047 25.0745 26.4824 24.9372Z" fill="url(#paint1_linear_14_27)"/>
<path d="M36.5883 24.4859C36.5955 25.6439 36.2877 26.7907 35.6837 27.856C35.5609 28.0705 35.426 28.2818 35.2796 28.4876C35.2754 28.4962 35.2712 28.4994 35.2712 28.5053C35.2698 28.5097 35.2671 28.5139 35.2634 28.5175C34.021 30.2817 32.0087 31.6713 29.5641 32.4531C28.1427 32.9135 26.6099 33.1478 25.0621 33.1413H17.4748L17.5621 33.1236C20.0134 32.647 22.1992 31.5966 23.8029 30.1246C25.4066 28.6527 26.345 26.8354 26.4823 24.9361V24.9329C26.6273 24.6495 26.6301 24.336 26.4901 24.0511C26.4864 24.0452 26.4823 24.0362 26.4781 24.0303C26.4026 23.8933 26.2921 23.7688 26.1529 23.6638C26.0102 23.5565 25.8399 23.472 25.6524 23.4157C25.4649 23.3593 25.264 23.3321 25.0621 23.3359H18.5221C18.1969 23.3359 17.8716 23.3272 17.5501 23.3033C17.5386 23.3033 17.5265 23.3001 17.5109 23.3001C16.3095 23.2287 15.1324 23.0073 14.028 22.645C11.28 21.7563 9.09182 20.1082 7.91617 18.0415C7.76136 17.7753 7.62626 17.5028 7.51148 17.2253C7.16831 16.3946 6.99587 15.5295 7.00011 14.6597C6.99322 13.4991 7.30507 12.35 7.91617 11.2841C9.09864 9.22376 11.2853 7.58115 14.028 6.69288C14.8285 6.42959 15.6692 6.24146 16.531 6.13277C16.5629 6.12648 16.5864 6.12373 16.6021 6.12059C16.61 6.11908 16.618 6.11816 16.6262 6.11784C17.2527 6.03913 17.8868 5.99972 18.5221 6H26.1769C23.7148 6.4583 21.5116 7.49485 19.888 8.95881C18.2644 10.4228 17.305 12.2377 17.1495 14.1396C17.1328 14.1617 17.1183 14.1847 17.1061 14.2084C17.0278 14.3509 16.9887 14.5039 16.9911 14.6581C16.9889 14.8196 17.0292 14.9798 17.1098 15.1295C17.1182 15.1461 17.1289 15.162 17.1417 15.177C17.21 15.2963 17.3084 15.4046 17.4314 15.4959C17.5745 15.603 17.7448 15.6874 17.9322 15.7442C18.1195 15.801 18.3201 15.829 18.5221 15.8266H25.0621C26.6066 15.8205 28.1366 16.0506 29.5588 16.503C32.3241 17.3763 34.5239 19.0287 35.6864 21.106C35.84 21.3753 35.9738 21.6506 36.0874 21.9309C36.4233 22.759 36.5921 23.6202 36.5883 24.4859Z" fill="url(#paint2_linear_14_27)"/>
<g style="mix-blend-mode:multiply" opacity="0.16">
<g style="mix-blend-mode:multiply" opacity="0.16">
<path d="M26.4822 24.9372C26.3442 26.8486 25.3949 28.6766 23.7732 30.1532C22.1516 31.6298 19.9429 32.6774 17.4711 33.1424H15.0596C17.0832 32.4271 18.8696 31.3824 20.2895 30.0844C21.7093 28.7863 22.7269 27.2672 23.2686 25.6371H25.0611C25.2677 25.6392 25.4728 25.6098 25.6639 25.5507C25.8467 25.4947 26.0126 25.4116 26.1518 25.3064C26.2922 25.2003 26.4044 25.0749 26.4822 24.9372Z" fill="black"/>
</g>
</g>
<g style="mix-blend-mode:multiply" opacity="0.16">
<g style="mix-blend-mode:multiply" opacity="0.16">
<path d="M28.3504 6.00153C26.1172 7.2498 21.584 10.1309 20.4415 13.5096H18.522C18.3202 13.5079 18.1199 13.5362 17.9326 13.593C17.7455 13.6498 17.575 13.7338 17.4313 13.8403C17.3144 13.9273 17.219 14.0291 17.1495 14.1412C17.305 12.2393 18.2643 10.4243 19.888 8.96034C21.5116 7.49638 23.7148 6.45983 26.1768 6.00153H28.3504Z" fill="black"/>
</g>
</g>
<g style="mix-blend-mode:multiply" opacity="0.25">
<g style="mix-blend-mode:multiply" opacity="0.25">
<path d="M35.2437 8.24776V13.5111H21.2789C22.4407 13.4246 23.6067 13.3653 24.769 13.3233C25.9314 13.2813 27.0974 13.2447 28.2592 13.231C29.4252 13.2043 30.5875 13.2074 31.7535 13.1984C32.7993 13.2074 33.8356 13.2074 34.8793 13.2251C34.8908 12.8826 34.8991 12.5397 34.9185 12.1944C34.9383 11.7561 34.9582 11.3181 34.9943 10.8802C35.0518 10.0027 35.1287 9.12367 35.2437 8.24776Z" fill="black"/>
</g>
</g>
<g style="mix-blend-mode:screen" opacity="0.7">
<g style="mix-blend-mode:screen" opacity="0.7">
<path d="M36.5883 24.4861C36.5954 25.6439 36.2876 26.7907 35.6837 27.8561C35.5608 28.0706 35.4259 28.2819 35.2795 28.4877C35.3192 28.4072 35.45 28.1507 35.6455 27.7575C35.9484 27.0889 36.1467 26.3961 36.2364 25.6931C36.2928 25.2274 36.3049 24.7593 36.2724 24.2924C36.2326 23.776 36.1372 23.2629 35.987 22.7582C35.9091 22.4972 35.8125 22.2395 35.6973 21.9864C35.5624 21.7244 35.4275 21.4588 35.2926 21.1937C34.9899 20.6724 34.6178 20.1753 34.182 19.7102C33.7575 19.2389 33.2666 18.8032 32.718 18.4108C32.1894 18.03 31.616 17.6861 31.0045 17.3833C30.4245 17.1004 29.8158 16.8523 29.1839 16.6414C28.6147 16.4574 28.0273 16.3069 27.427 16.1912C26.5133 16.021 25.5791 15.9202 24.6386 15.8904C23.9484 15.8511 23.5557 15.8279 23.5557 15.8279H25.059C26.6034 15.8217 28.1334 16.0519 29.5556 16.5043C32.3209 17.3776 34.5207 19.03 35.6832 21.1073C35.8368 21.3765 35.9706 21.6519 36.0842 21.9322C36.421 22.7598 36.5909 23.6206 36.5883 24.4861Z" fill="white"/>
</g>
</g>
<g style="mix-blend-mode:multiply" opacity="0.25">
<g style="mix-blend-mode:multiply" opacity="0.25">
<path d="M16.2216 33.1413H8.82086V27.4655C8.91184 27.9392 8.96725 28.4082 9.02686 28.8839C9.07444 29.3576 9.11836 29.8313 9.14607 30.3018C9.18581 30.7755 9.19366 31.2496 9.21719 31.7233L9.2334 32.8314C9.71288 32.8372 10.1929 32.8372 10.6729 32.8463C11.2878 32.8643 11.9027 32.8702 12.5212 32.9001C13.7547 32.9449 14.9881 33.0132 16.2216 33.1413Z" fill="black"/>
</g>
</g>
<g style="mix-blend-mode:screen" opacity="0.7">
<g style="mix-blend-mode:screen" opacity="0.7">
<path d="M17.5109 23.3001C16.3095 23.2286 15.1324 23.0072 14.028 22.6449C11.28 21.7563 9.09182 20.1082 7.91617 18.0415C7.76136 17.7752 7.62626 17.5028 7.51148 17.2253C7.16831 16.3946 6.99587 15.5294 7.00011 14.6596C6.99322 13.4991 7.30507 12.35 7.91617 11.2841C9.09864 9.22371 11.2853 7.5811 14.028 6.69282C14.8285 6.42953 15.6692 6.24141 16.531 6.13272C16.0987 6.21081 15.6723 6.30626 15.2536 6.41866C12.4134 7.18068 10.0636 8.72342 8.678 10.7357C7.7617 12.0571 7.33038 13.538 7.42834 15.0261C7.45907 15.7739 7.63142 16.5145 7.94022 17.2257C8.0312 17.4072 8.11853 17.589 8.20585 17.7677L8.26912 17.9017L8.28532 17.9347C8.28897 17.9402 8.29162 17.9462 8.29317 17.9523L8.3329 18.0179L8.48348 18.2713C8.68378 18.5992 8.91296 18.9168 9.16949 19.2218C9.65583 19.8026 10.2295 20.3394 10.8793 20.8216C11.469 21.2533 12.1147 21.6396 12.8066 21.9748C13.3973 22.2564 14.0167 22.5024 14.6591 22.7105C15.1604 22.8707 15.6775 23.0012 16.2058 23.1009C16.636 23.1838 17.0716 23.2502 17.5109 23.3001Z" fill="white"/>
</g>
</g>
<g style="mix-blend-mode:screen" opacity="0.7">
<g style="mix-blend-mode:screen" opacity="0.7">
<path d="M26.1769 6.00153C23.7148 6.45983 21.5117 7.49638 19.888 8.96034C18.2644 10.4243 17.305 12.2393 17.1495 14.1412C17.1328 14.1632 17.1182 14.1862 17.1061 14.2099L17.138 14.1353C17.126 13.8996 17.126 13.6616 17.126 13.4232C17.1495 13.1851 17.1851 12.9467 17.217 12.7052C17.2692 12.4695 17.3398 12.2338 17.3994 11.9981C17.4789 11.7625 17.5861 11.5362 17.6771 11.301C17.7817 11.0716 17.9113 10.8508 18.0379 10.6246C18.1728 10.4042 18.3317 10.1925 18.4745 9.97492C18.6407 9.76361 18.8232 9.56407 18.9973 9.3555C19.1877 9.15911 19.3858 8.96508 19.5845 8.77418C19.7984 8.58958 20.0248 8.414 20.2428 8.23489C20.4807 8.06835 20.7134 7.90142 20.9607 7.74038L21.734 7.29654C22.0038 7.1626 22.2773 7.0373 22.5549 6.90925C22.8446 6.80202 23.1264 6.68576 23.4156 6.58128L24.3123 6.31929C24.626 6.25055 24.9309 6.18221 25.2404 6.1229C25.5499 6.07577 25.8637 6.03728 26.1769 6.00153Z" fill="white"/>
</g>
</g>
<g style="mix-blend-mode:screen" opacity="0.7">
<g style="mix-blend-mode:screen" opacity="0.7">
<path d="M26.554 24.9329C26.5577 25.1772 26.5577 25.4156 26.5498 25.6568C26.53 25.8984 26.4902 26.1368 26.4547 26.378C26.3992 26.6163 26.3358 26.8547 26.2643 27.0932C26.1849 27.3289 26.0819 27.561 25.9904 27.7932C25.8858 28.0257 25.7488 28.246 25.6243 28.4727C25.49 28.6962 25.3352 28.9106 25.1841 29.1282C25.0215 29.3395 24.8395 29.5422 24.6649 29.7508C24.4746 29.9503 24.2759 30.1436 24.0777 30.3376C23.8638 30.5226 23.6374 30.7013 23.4194 30.8828C23.1815 31.0529 22.9488 31.2198 22.7015 31.3836L21.9276 31.8306C21.6578 31.9646 21.3842 32.0955 21.1067 32.2234L20.2461 32.56L19.3457 32.831L18.4213 33.0337C18.1834 33.0694 17.9507 33.1052 17.7154 33.135L17.7677 33.1409L17.4937 33.1649C17.49 33.168 17.4817 33.168 17.478 33.168L17.4738 33.1409L17.4702 33.1142L17.5612 33.1232C20.0125 32.6466 22.1982 31.5962 23.802 30.1242C25.4057 28.6522 26.3441 26.835 26.4813 24.9357V24.9325C26.5583 24.7907 26.596 24.6386 26.5922 24.4855C26.6209 24.635 26.6079 24.7874 26.554 24.9329Z" fill="white"/>
</g>
</g>
<defs>
<linearGradient id="paint0_linear_14_27" x1="35.2434" y1="10.0714" x2="17.8913" y2="10.0714" gradientUnits="userSpaceOnUse">
<stop stop-color="#6888C8"/>
</linearGradient>
<linearGradient id="paint1_linear_14_27" x1="8.13206" y1="29.0398" x2="24.8045" y2="29.0398" gradientUnits="userSpaceOnUse">
<stop stop-color="#6888C8"/>
<stop offset="0.940625" stop-color="#69DCFC"/>
</linearGradient>
<linearGradient id="paint2_linear_14_27" x1="21.7942" y1="5.78287" x2="21.7942" y2="33.8742" gradientUnits="userSpaceOnUse">
<stop stop-color="#345392"/>
<stop offset="0.83125" stop-color="#6DDDFC"/>
</linearGradient>
</defs>
</svg>
