<svg width="41" height="41" viewBox="0 0 41 41" fill="none" xmlns="http://www.w3.org/2000/svg">
<circle cx="20.5" cy="20.5" r="20.5" fill="#DEEEFE"/>
<path d="M33.2434 7.00153V14.5096H16.522C16.3202 14.5079 16.1199 14.5362 15.9326 14.593C15.7454 14.6498 15.575 14.7338 15.4313 14.8403C15.3144 14.9273 15.219 15.0291 15.1495 15.1412C15.305 13.2393 16.2643 11.4243 17.888 9.96034C19.5116 8.49638 21.7148 7.45983 24.1768 7.00153H33.2434Z" fill="url(#paint0_linear_1_26)"/>
<path d="M24.4824 25.9372C24.3444 27.8486 23.3951 29.6766 21.7734 31.1532C20.1517 32.6298 17.9431 33.6774 15.4712 34.1424H6.82086V26.636H23.0623C23.2689 26.638 23.474 26.6086 23.6651 26.5495C23.8479 26.4935 24.0138 26.4105 24.153 26.3052C24.2929 26.1994 24.4047 26.0745 24.4824 25.9372Z" fill="url(#paint1_linear_1_26)"/>
<path d="M34.5883 25.4859C34.5955 26.6439 34.2877 27.7907 33.6837 28.856C33.5609 29.0705 33.426 29.2818 33.2796 29.4876C33.2754 29.4962 33.2712 29.4994 33.2712 29.5053C33.2698 29.5097 33.2671 29.5139 33.2634 29.5175C32.021 31.2817 30.0087 32.6713 27.5641 33.4531C26.1427 33.9135 24.6099 34.1478 23.0621 34.1413H15.4748L15.5621 34.1236C18.0134 33.647 20.1992 32.5966 21.8029 31.1246C23.4066 29.6527 24.345 27.8354 24.4823 25.9361V25.9329C24.6273 25.6495 24.6301 25.336 24.4901 25.0511C24.4864 25.0452 24.4823 25.0362 24.4781 25.0303C24.4026 24.8933 24.2921 24.7688 24.1529 24.6638C24.0102 24.5565 23.8399 24.472 23.6524 24.4157C23.4649 24.3593 23.264 24.3321 23.0621 24.3359H16.5221C16.1969 24.3359 15.8716 24.3272 15.5501 24.3033C15.5386 24.3033 15.5265 24.3001 15.5109 24.3001C14.3095 24.2287 13.1324 24.0073 12.028 23.645C9.27998 22.7563 7.09182 21.1082 5.91617 19.0415C5.76136 18.7753 5.62626 18.5028 5.51148 18.2253C5.16831 17.3946 4.99587 16.5295 5.00011 15.6597C4.99322 14.4991 5.30507 13.35 5.91617 12.2841C7.09864 10.2238 9.28528 8.58115 12.028 7.69288C12.8285 7.42959 13.6692 7.24146 14.531 7.13277C14.5629 7.12648 14.5864 7.12373 14.6021 7.12059C14.61 7.11908 14.618 7.11816 14.6262 7.11784C15.2527 7.03913 15.8868 6.99972 16.5221 7H24.1769C21.7148 7.4583 19.5116 8.49485 17.888 9.95881C16.2644 11.4228 15.305 13.2377 15.1495 15.1396C15.1328 15.1617 15.1183 15.1847 15.1061 15.2084C15.0278 15.3509 14.9887 15.5039 14.9911 15.6581C14.9889 15.8196 15.0292 15.9798 15.1098 16.1295C15.1182 16.1461 15.1289 16.162 15.1417 16.177C15.21 16.2963 15.3084 16.4046 15.4314 16.4959C15.5745 16.603 15.7448 16.6874 15.9322 16.7442C16.1195 16.801 16.3201 16.829 16.5221 16.8266H23.0621C24.6066 16.8205 26.1366 17.0506 27.5588 17.503C30.3241 18.3763 32.5239 20.0287 33.6864 22.106C33.84 22.3753 33.9738 22.6506 34.0874 22.9309C34.4233 23.759 34.5921 24.6202 34.5883 25.4859Z" fill="url(#paint2_linear_1_26)"/>
<g style="mix-blend-mode:multiply" opacity="0.16">
<g style="mix-blend-mode:multiply" opacity="0.16">
<path d="M24.4822 25.9372C24.3442 27.8486 23.3949 29.6766 21.7732 31.1532C20.1516 32.6298 17.9429 33.6774 15.4711 34.1424H13.0596C15.0832 33.4271 16.8696 32.3824 18.2895 31.0844C19.7093 29.7863 20.7269 28.2672 21.2686 26.6371H23.0611C23.2677 26.6392 23.4728 26.6098 23.6639 26.5507C23.8467 26.4947 24.0126 26.4116 24.1518 26.3064C24.2922 26.2003 24.4044 26.0749 24.4822 25.9372Z" fill="black"/>
</g>
</g>
<g style="mix-blend-mode:multiply" opacity="0.16">
<g style="mix-blend-mode:multiply" opacity="0.16">
<path d="M26.3504 7.00153C24.1172 8.2498 19.584 11.1309 18.4415 14.5096H16.522C16.3202 14.5079 16.1199 14.5362 15.9326 14.593C15.7454 14.6498 15.575 14.7338 15.4313 14.8403C15.3144 14.9273 15.219 15.0291 15.1495 15.1412C15.305 13.2393 16.2643 11.4243 17.888 9.96034C19.5116 8.49638 21.7148 7.45983 24.1768 7.00153H26.3504Z" fill="black"/>
</g>
</g>
<g style="mix-blend-mode:multiply" opacity="0.25">
<g style="mix-blend-mode:multiply" opacity="0.25">
<path d="M33.2437 9.24776V14.5111H19.2789C20.4407 14.4246 21.6067 14.3653 22.769 14.3233C23.9314 14.2813 25.0974 14.2447 26.2592 14.231C27.4252 14.2043 28.5875 14.2074 29.7535 14.1984C30.7993 14.2074 31.8356 14.2074 32.8793 14.2251C32.8908 13.8826 32.8991 13.5397 32.9185 13.1944C32.9383 12.7561 32.9582 12.3181 32.9943 11.8802C33.0518 11.0027 33.1287 10.1237 33.2437 9.24776Z" fill="black"/>
</g>
</g>
<g style="mix-blend-mode:screen" opacity="0.7">
<g style="mix-blend-mode:screen" opacity="0.7">
<path d="M34.5883 25.4861C34.5954 26.6439 34.2876 27.7907 33.6837 28.8561C33.5608 29.0706 33.4259 29.2819 33.2795 29.4877C33.3192 29.4072 33.45 29.1507 33.6455 28.7575C33.9484 28.0889 34.1467 27.3961 34.2364 26.6931C34.2928 26.2274 34.3049 25.7593 34.2724 25.2924C34.2326 24.776 34.1372 24.2629 33.987 23.7582C33.9091 23.4972 33.8125 23.2395 33.6973 22.9864C33.5624 22.7244 33.4275 22.4588 33.2926 22.1937C32.9899 21.6724 32.6178 21.1753 32.182 20.7102C31.7575 20.2389 31.2666 19.8032 30.718 19.4108C30.1894 19.03 29.616 18.6861 29.0045 18.3833C28.4245 18.1004 27.8158 17.8523 27.1839 17.6414C26.6147 17.4574 26.0273 17.3069 25.427 17.1912C24.5133 17.021 23.5791 16.9202 22.6386 16.8904C21.9484 16.8511 21.5557 16.8279 21.5557 16.8279H23.059C24.6034 16.8217 26.1334 17.0519 27.5556 17.5043C30.3209 18.3776 32.5207 20.03 33.6832 22.1073C33.8368 22.3765 33.9706 22.6519 34.0842 22.9322C34.421 23.7598 34.5909 24.6206 34.5883 25.4861Z" fill="white"/>
</g>
</g>
<g style="mix-blend-mode:multiply" opacity="0.25">
<g style="mix-blend-mode:multiply" opacity="0.25">
<path d="M14.2216 34.1413H6.82086V28.4655C6.91184 28.9392 6.96725 29.4082 7.02686 29.8839C7.07444 30.3576 7.11836 30.8313 7.14607 31.3018C7.18581 31.7755 7.19366 32.2496 7.21719 32.7233L7.2334 33.8314C7.71287 33.8372 8.19286 33.8372 8.67286 33.8463C9.28775 33.8643 9.90266 33.8702 10.5212 33.9001C11.7547 33.9449 12.9881 34.0132 14.2216 34.1413Z" fill="black"/>
</g>
</g>
<g style="mix-blend-mode:screen" opacity="0.7">
<g style="mix-blend-mode:screen" opacity="0.7">
<path d="M15.5109 24.3001C14.3095 24.2286 13.1324 24.0072 12.028 23.6449C9.27998 22.7563 7.09182 21.1082 5.91617 19.0415C5.76136 18.7752 5.62626 18.5028 5.51148 18.2253C5.16831 17.3946 4.99587 16.5294 5.00011 15.6596C4.99322 14.4991 5.30507 13.35 5.91617 12.2841C7.09864 10.2237 9.28528 8.5811 12.028 7.69282C12.8285 7.42953 13.6692 7.24141 14.531 7.13272C14.0987 7.21081 13.6723 7.30626 13.2536 7.41866C10.4134 8.18068 8.06357 9.72343 6.678 11.7357C5.7617 13.0571 5.33038 14.538 5.42834 16.0261C5.45907 16.7739 5.63142 17.5145 5.94022 18.2257C6.0312 18.4072 6.11853 18.589 6.20585 18.7677L6.26912 18.9017L6.28532 18.9347C6.28897 18.9402 6.29162 18.9462 6.29317 18.9523L6.3329 19.0179L6.48348 19.2713C6.68378 19.5992 6.91296 19.9168 7.16949 20.2218C7.65583 20.8026 8.22953 21.3394 8.87928 21.8216C9.46902 22.2533 10.1147 22.6396 10.8066 22.9748C11.3973 23.2564 12.0167 23.5024 12.6591 23.7105C13.1604 23.8707 13.6775 24.0012 14.2058 24.1009C14.636 24.1838 15.0716 24.2502 15.5109 24.3001Z" fill="white"/>
</g>
</g>
<g style="mix-blend-mode:screen" opacity="0.7">
<g style="mix-blend-mode:screen" opacity="0.7">
<path d="M24.1769 7.00153C21.7148 7.45983 19.5117 8.49638 17.888 9.96034C16.2644 11.4243 15.305 13.2393 15.1495 15.1412C15.1328 15.1632 15.1182 15.1862 15.1061 15.2099L15.138 15.1353C15.126 14.8996 15.126 14.6616 15.126 14.4232C15.1495 14.1851 15.1851 13.9467 15.217 13.7052C15.2692 13.4695 15.3398 13.2338 15.3994 12.9982C15.4789 12.7625 15.5861 12.5362 15.6771 12.301C15.7817 12.0716 15.9113 11.8508 16.0379 11.6246C16.1728 11.4042 16.3317 11.1925 16.4745 10.9749C16.6407 10.7636 16.8232 10.5641 16.9973 10.3555C17.1877 10.1591 17.3858 9.96508 17.5845 9.77418C17.7984 9.58958 18.0248 9.414 18.2428 9.23489C18.4807 9.06835 18.7134 8.90142 18.9607 8.74038L19.734 8.29654C20.0038 8.1626 20.2773 8.0373 20.5549 7.90925C20.8446 7.80202 21.1264 7.68576 21.4156 7.58128L22.3123 7.31929C22.626 7.25055 22.9309 7.18221 23.2404 7.1229C23.5499 7.07577 23.8637 7.03728 24.1769 7.00153Z" fill="white"/>
</g>
</g>
<g style="mix-blend-mode:screen" opacity="0.7">
<g style="mix-blend-mode:screen" opacity="0.7">
<path d="M24.554 25.9329C24.5577 26.1772 24.5577 26.4156 24.5498 26.6568C24.53 26.8984 24.4902 27.1368 24.4547 27.378C24.3992 27.6163 24.3358 27.8547 24.2643 28.0932C24.1849 28.3289 24.0819 28.561 23.9904 28.7932C23.8858 29.0257 23.7488 29.246 23.6243 29.4727C23.49 29.6962 23.3352 29.9106 23.1841 30.1282C23.0215 30.3395 22.8395 30.5422 22.6649 30.7508C22.4746 30.9503 22.2759 31.1436 22.0777 31.3376C21.8638 31.5226 21.6374 31.7013 21.4194 31.8828C21.1815 32.0529 20.9488 32.2198 20.7015 32.3836L19.9277 32.8306C19.6578 32.9646 19.3842 33.0955 19.1067 33.2234L18.2461 33.56L17.3457 33.831L16.4213 34.0337C16.1834 34.0694 15.9507 34.1052 15.7154 34.135L15.7677 34.1409L15.4937 34.1649C15.49 34.168 15.4817 34.168 15.478 34.168L15.4738 34.1409L15.4702 34.1142L15.5612 34.1232C18.0125 33.6466 20.1982 32.5962 21.802 31.1242C23.4057 29.6522 24.3441 27.835 24.4813 25.9357V25.9325C24.5583 25.7907 24.596 25.6386 24.5922 25.4855C24.6209 25.635 24.6079 25.7874 24.554 25.9329Z" fill="white"/>
</g>
</g>
<defs>
<linearGradient id="paint0_linear_1_26" x1="33.2434" y1="11.0714" x2="15.8913" y2="11.0714" gradientUnits="userSpaceOnUse">
<stop stop-color="#6888C8"/>
</linearGradient>
<linearGradient id="paint1_linear_1_26" x1="6.13206" y1="30.0398" x2="22.8045" y2="30.0398" gradientUnits="userSpaceOnUse">
<stop stop-color="#6888C8"/>
<stop offset="0.940625" stop-color="#69DCFC"/>
</linearGradient>
<linearGradient id="paint2_linear_1_26" x1="19.7942" y1="6.78287" x2="19.7942" y2="34.8742" gradientUnits="userSpaceOnUse">
<stop stop-color="#345392"/>
<stop offset="0.83125" stop-color="#6DDDFC"/>
</linearGradient>
</defs>
</svg>
